<svg xmlns="http://www.w3.org/2000/svg" xml:space="preserve" style="fill-rule:evenodd;clip-rule:evenodd;stroke-linejoin:round;stroke-miterlimit:2" viewBox="0 0 1024 1103"><path d="M318.708 32.146c2.719-4.219 5.93-8.461 9.633-12.727a104.157 104.157 0 0 1 12.164-11.882c4.406-3.657 9.047-6.797 13.922-9.422 4.875-2.625 9.844-4.453 14.906-5.485a91.659 91.659 0 0 1 8.86-1.265c3-.282 5.953-.422 8.859-.422 11.156 0 21.258 2.062 30.305 6.187 9.046 4.125 16.734 9.727 23.062 16.805 6.328 7.078 11.203 15.352 14.625 24.82 3.422 9.469 5.133 19.594 5.133 30.375 0 7.125-.844 14.11-2.531 20.953-3.188 12.563-8.274 24.797-15.258 36.704-6.985 11.906-15.024 23.296-24.117 34.171a340.482 340.482 0 0 1-29.11 30.727c-10.312 9.609-20.39 18.352-30.234 26.227a2991.948 2991.948 0 0 1-15.188 11.953 169.968 169.968 0 0 1-15.75 10.968c-1.5.938-2.976 1.641-4.429 2.11-1.453.469-3.071.703-4.852.703-1.781 0-3.398-.234-4.851-.703-1.454-.469-2.93-1.172-4.43-2.11a169.968 169.968 0 0 1-15.75-10.968 1225.95 1225.95 0 0 1-15.047-11.953 537.957 537.957 0 0 1-20.109-16.946 425.1 425.1 0 0 1-20.18-19.054 353.802 353.802 0 0 1-19.125-20.883 238.512 238.512 0 0 1-16.875-22.5c-5.109-7.735-9.609-15.656-13.5-23.766-3.891-8.109-6.914-16.336-9.07-24.68a87.168 87.168 0 0 1-2.532-20.953c0-10.781 1.711-20.906 5.133-30.375 3.422-9.468 8.297-17.742 14.625-24.82 6.328-7.078 14.016-12.68 23.063-16.805 9.047-4.125 19.148-6.187 30.304-6.187 6 0 11.907.562 17.719 1.687 5.063 1.032 10.031 2.86 14.906 5.485a82.02 82.02 0 0 1 13.852 9.422 112.077 112.077 0 0 1 12.164 11.882c3.75 4.266 6.984 8.508 9.703 12.727Z" style="fill:none;fill-rule:nonzero;stroke:#7b568d;stroke-width:57.65px" transform="translate(-317.199 246.329) scale(2.60175)"/><path d="M318.708 32.146c2.719-4.219 5.93-8.461 9.633-12.727a104.157 104.157 0 0 1 12.164-11.882c4.406-3.657 9.047-6.797 13.922-9.422 4.875-2.625 9.844-4.453 14.906-5.485a91.659 91.659 0 0 1 8.86-1.265c3-.282 5.953-.422 8.859-.422 11.156 0 21.258 2.062 30.305 6.187 9.046 4.125 16.734 9.727 23.062 16.805 6.328 7.078 11.203 15.352 14.625 24.82 3.422 9.469 5.133 19.594 5.133 30.375 0 7.125-.844 14.11-2.531 20.953-3.188 12.563-8.274 24.797-15.258 36.704-6.985 11.906-15.024 23.296-24.117 34.171a340.482 340.482 0 0 1-29.11 30.727c-10.312 9.609-20.39 18.352-30.234 26.227a2991.948 2991.948 0 0 1-15.188 11.953 169.968 169.968 0 0 1-15.75 10.968c-1.5.938-2.976 1.641-4.429 2.11-1.453.469-3.071.703-4.852.703-1.781 0-3.398-.234-4.851-.703-1.454-.469-2.93-1.172-4.43-2.11a169.968 169.968 0 0 1-15.75-10.968 1225.95 1225.95 0 0 1-15.047-11.953 537.957 537.957 0 0 1-20.109-16.946 425.1 425.1 0 0 1-20.18-19.054 353.802 353.802 0 0 1-19.125-20.883 238.512 238.512 0 0 1-16.875-22.5c-5.109-7.735-9.609-15.656-13.5-23.766-3.891-8.109-6.914-16.336-9.07-24.68a87.168 87.168 0 0 1-2.532-20.953c0-10.781 1.711-20.906 5.133-30.375 3.422-9.468 8.297-17.742 14.625-24.82 6.328-7.078 14.016-12.68 23.063-16.805 9.047-4.125 19.148-6.187 30.304-6.187 6 0 11.907.562 17.719 1.687 5.063 1.032 10.031 2.86 14.906 5.485a82.02 82.02 0 0 1 13.852 9.422 112.077 112.077 0 0 1 12.164 11.882c3.75 4.266 6.984 8.508 9.703 12.727Z" style="fill:url(#a);fill-rule:nonzero" transform="translate(-317.199 246.329) scale(2.60175)"/><defs><linearGradient id="a" x1="0" x2="1" y1="0" y2="0" gradientTransform="matrix(0 -254.218 227.052 0 318.708 257.862)" gradientUnits="userSpaceOnUse"><stop offset="0" style="stop-color:#ab91e3;stop-opacity:1"/><stop offset="1" style="stop-color:#bb98d2;stop-opacity:1"/></linearGradient></defs></svg>