<svg xmlns="http://www.w3.org/2000/svg" xml:space="preserve" style="fill-rule:evenodd;clip-rule:evenodd;stroke-linejoin:round;stroke-miterlimit:2" viewBox="0 0 5000 500"><text x="123.716" y="287.348" style="font-family:&quot;HansHand&quot;;font-style:italic;font-size:400px;fill:url(#a)" transform="translate(-30.516 105.852)">0</text><path d="M174.247 63.904c.931-5.116 2.746-9.979 5.437-14.591 1.163-1.994 3.535-5.675 7.191-10.993.118-.173.239-.345.36-.515 2.381-3.333 4.878-7.024 7.496-11.071a35.058 35.058 0 0 1 2.811-3.763c.419-.489.971-1.158 1.204-1.441 6.225-8.912 12.577-15.881 18.8-21.132 6.362-5.369 13.999-9.58 23.083-12.194 18.846-15.151 43.288-23.968 73.876-25.022a235.34 235.34 0 0 0 11.114-.95c7.429-1.091 12.672-1.484 15.697-1.484 7.075 0 13.733 1.012 19.991 2.917 4.99 1.518 11.026 4.073 17.968 7.978 20.322 11.431 35.897 22.824 47.011 33.779 15.964 15.735 23.673 31.289 25.954 44.972l.057.351c1.619 10.363 2.419 20.564 2.419 30.603 0 27.972-6.325 54.445-18.979 79.419a34.952 34.952 0 0 1-5.206 7.595c-6.303 7.004-10.486 11.576-12.507 13.725a2687.428 2687.428 0 0 1-17.466 19.646 1544.895 1544.895 0 0 0-16.431 18.582 839.234 839.234 0 0 0-14.013 16.507c-2.869 3.477-4.942 5.995-5.986 7.734a34.956 34.956 0 0 1-2.209 3.253c-5.708 7.463-11.643 13.274-17.57 17.664-4.851 3.593-13.467 8.411-26.203 13.778-3.768 1.88-7.579 4.43-11.505 7.539-.338.267-.68.528-1.027.782-4.502 3.302-8.332 5.997-11.483 8.098-4.472 2.981-10.464 6.117-18.129 9.098-.163.064-.325.126-.489.186-22.688 8.436-40.894 14.098-54.566 17.152-14.847 3.317-29.539 5.118-44.07 5.434-.836.018-1.673.006-2.509-.035-11.206-.561-24.987-5.284-39.555-17.891-12.607-10.909-20.376-23.231-24.255-36.323a34.804 34.804 0 0 1-.68-2.68c-2.365-11.15-3.562-22.637-3.562-34.463 0-21.873 3.98-44.492 12.183-67.813 7.425-21.112 17.787-43.484 31.183-67.071.137-.242.278-.484.422-.723 2.672-4.454 6.919-10.823 12.799-19.07 4.86-7.298 8.645-13.151 11.344-17.567Zm243.469-7.756c-1.333-8-6.667-16.6-16-25.8s-22.533-18.6-39.6-28.2c-4.267-2.4-7.933-4.066-11-5-3.067-.933-6.333-1.4-9.8-1.4-2.133 0-5.867.4-11.2 1.2-4.8.534-9.467.934-14 1.2-25.333.8-45.067 8.267-59.2 22.4-6.933.8-12.533 3-16.8 6.6-4.267 3.6-8.533 8.467-12.8 14.6-.533.8-1.6 2.134-3.2 4-2.933 4.534-5.733 8.667-8.4 12.4-2.933 4.267-4.867 7.2-5.8 8.8-.933 1.6-1.4 3.334-1.4 5.2 0 1.867-1.467 5.2-4.4 10-2.933 4.8-7.067 11.2-12.4 19.2-5.333 7.467-9.2 13.2-11.6 17.2-12.267 21.6-21.8 42.067-28.6 61.4-6.8 19.334-10.2 38.067-10.2 56.2 0 9.334.933 18.4 2.8 27.2 2.133 7.2 6.667 13.8 13.6 19.8s13.067 9.134 18.4 9.4c12.267-.266 24.667-1.8 37.2-4.6 12.533-2.8 29.2-8.066 50-15.8 4.8-1.866 8.6-3.733 11.4-5.6 2.8-1.866 6.2-4.266 10.2-7.2 6.4-5.066 12.667-9.066 18.8-12 9.6-4 16.2-7.333 19.8-10 3.6-2.666 7.133-6.266 10.6-10.8 1.6-2.666 4.6-6.666 9-12a877.963 877.963 0 0 1 14.6-17.2 1594.52 1594.52 0 0 1 16.8-19 2627.73 2627.73 0 0 0 17.6-19.8c1.067-1.066 5.2-5.6 12.4-13.6 10.133-20 15.2-41.2 15.2-63.6 0-8.266-.667-16.666-2-25.2Zm-236.8 196.4c-4.267-7.466-6.4-15.2-6.4-23.2 0-4 .533-9.6 1.6-16.8 1.333-8.266 2-14.8 2-19.6 0-.8.067-1.466.2-2 .133-.533.733-1.333 1.8-2.4 2.133-3.2 4.333-6.6 6.6-10.2 2.267-3.6 5.667-9.333 10.2-17.2 4.533-7.866 10.667-18.933 18.4-33.2 7.733-14.266 16.933-31.933 27.6-53 2.133-4 3.8-6.666 5-8 1.2-1.333 2.467-2 3.8-2 .533 0 1.467.134 2.8.4 1.6.534 2.667.8 3.2.8 2.133.534 3.733 1.667 4.8 3.4 1.067 1.734 2 4.067 2.8 7 1.067 2.934 2.133 5.134 3.2 6.6 1.067 1.467 2.8 2.2 5.2 2.2 3.467 0 5.667-1 6.6-3 .933-2 1.667-5.4 2.2-10.2 1.067-6.933 2.667-11.866 4.8-14.8 3.2-4 4.8-8.533 4.8-13.6 0-4-.933-7.6-2.8-10.8-1.867-3.2-4-5.2-6.4-6 18.667 0 36.933 1.934 54.8 5.8 17.867 3.867 29.867 9 36 15.4 3.2 2.934 5.267 5.067 6.2 6.4.933 1.334 1.4 2.4 1.4 3.2 0 .534-.133 1.334-.4 2.4-.533 2.667-.8 5.467-.8 8.4 0 6.934 1.733 16.534 5.2 28.8v3.2l.4 3.2c0 13.867-3.467 27.734-10.4 41.6-6.933 13.867-17.2 28.8-30.8 44.8-7.733 8.534-16.867 16.667-27.4 24.4-10.533 7.734-21 14.667-31.4 20.8-10.4 6.134-19.8 11.134-28.2 15-8.4 3.867-14.2 6.067-17.4 6.6-4 .534-8.667.934-14 1.2-5.333.267-10.4.4-15.2.4-7.733 0-14.267-.466-19.6-1.4-5.333-.933-8.8-2.466-10.4-4.6Zm31.717-49.753c-.387 4.394-1.017 9.43-1.928 15.105a197.433 197.433 0 0 0-.765 5.646l.976.002c4.248 0 8.732-.12 13.452-.356 3.365-.168 6.397-.393 9.094-.691 1.595-.621 5.854-2.305 9.419-3.946 7.467-3.437 15.811-7.903 25.056-13.355 9.429-5.561 18.915-11.853 28.466-18.865 8.345-6.126 15.632-12.532 21.824-19.301 11.312-13.355 19.988-25.745 25.784-37.338 4.019-8.038 6.351-16.032 6.668-24.066l-.093-.74a35.252 35.252 0 0 1-.233-2.733c-3.253-12.435-4.846-22.656-5.173-30.595-3.852-1.447-9.734-3.495-14.867-4.606a218.337 218.337 0 0 0-7.441-1.475 56.047 56.047 0 0 1-5.348 9.835 50.473 50.473 0 0 0-.335 1.673c-1.145 9.497-3.272 16.122-5.156 20.16-5.767 12.357-16.898 23.199-38.317 23.199-5.102 0-9.653-.71-13.714-1.997-5.066 9.75-9.705 18.509-13.916 26.276-7.919 14.61-14.202 25.941-18.845 33.997-4.844 8.405-8.485 14.526-10.907 18.373a532.524 532.524 0 0 1-3.701 5.798Z" style="fill:#30466e" transform="translate(-30.516 105.852)"/><text x="123.716" y="287.348" style="font-family:&quot;HansHand&quot;;font-style:italic;font-size:400px;fill:url(#b)" transform="translate(527.484 131.052)">1</text><path d="M153.77 321.888c-1.869.306-3.76.46-5.654.46h-3.6c-14.344 0-23.807-4.584-29.732-9.228-8.523-6.34-14.868-15.869-14.868-30.572 0-4.113 1.705-14.603 8.103-30.598.106-.265.215-.527.327-.789.675-1.574 2.48-7.189 5.596-16.761 2.221-7.21 4.306-13.663 6.252-19.362a3036.972 3036.972 0 0 0 6.918-20.558c3.077-9.23 5.656-16.403 7.707-21.53 2.082-5.204 3.724-9.141 4.914-11.817.334-.753.696-1.494 1.083-2.221 6.742-12.675 12.473-23.327 17.192-31.957 4.775-8.731 11.242-20.042 19.409-33.93 8.541-15.015 15.859-28.288 21.95-39.821 2.917-5.523 6.145-11.9 9.687-19.127-4.335-2.346-8.166-5.637-11.516-9.824-4.206-5.258-8.822-13.761-8.822-26.905 0-5.417.721-11.593 2.445-18.488 2.636-10.545 6.612-17.21 9.625-20.976l.823-1.028a63.588 63.588 0 0 1 6.958-8.256c1.585-1.585 3.929-3.795 7.038-6.599 7.854-7.338 18.513-14.03 32.411-19.345.474-.181.951-.351 1.432-.512 5.675-1.891 10.421-3.159 14.204-3.916 3.615-.723 8.269-1.264 13.972-1.427 5.462-1 9.118-1.253 10.892-1.253 5.311 0 13.697 1.294 23.923 7.1.413.18.808.36 1.146.519 6.548 2.923 10.689 5.059 12.539 6.169 13.518 8.111 18.992 19.694 18.992 33.212 0 2.023-.175 4.041-.524 6.034-2.163 12.362-5.391 24.881-9.691 37.492-6.207 18.608-14.242 37.148-24.137 55.609-9.165 17.099-21.396 38.235-36.711 63.397-19.524 32.372-34.458 59.331-44.737 80.916-8.839 18.561-14.339 37.322-16.36 56.314-1.761 19.631-9.177 33.415-19.029 42.704-10.248 9.662-23.322 15.674-39.717 16.845-.145.011-.289.02-.434.029h-.006Zm0 0c-.684.04-1.369.06-2.054.06.459 0 1.151.077 2.054-.06Zm74.346-342.14c-1.067 1.334-2.067 3.867-3 7.6-.933 3.734-1.4 7.067-1.4 10 0 4 1.067 6 3.2 6 .8 0 1.733-.266 2.8-.8 6.667-5.333 11.667-8.866 15-10.6a60.943 60.943 0 0 1 10.2-4.2h.4c3.2-.533 5.6-.8 7.2-.8 3.2 0 4.8 1.067 4.8 3.2 0 1.6-1.733 5.734-5.2 12.4-3.733 7.734-6.667 14.4-8.8 20-9.067 19.467-16.733 35.134-23 47-6.267 11.867-13.8 25.534-22.6 41-8 13.6-14.333 24.667-19 33.2-4.667 8.534-10.333 19.067-17 31.6-1.067 2.4-2.533 5.934-4.4 10.6-1.867 4.667-4.2 11.2-7 19.6a3079.2 3079.2 0 0 1-7 20.8c-1.867 5.467-3.867 11.667-6 18.6-3.733 11.467-6 18.134-6.8 20-3.733 9.334-5.6 15.2-5.6 17.6 0 1.334.4 2.267 1.2 2.8 1.333 1.334 4.133 2 8.4 2h3.6c1.6-.266 2.8-.4 3.6-.4 7.467-.533 13.533-3 18.2-7.4s7.4-11.266 8.2-20.6c2.4-22.933 8.933-45.6 19.6-68 10.667-22.4 26.133-50.4 46.4-84 14.933-24.533 26.867-45.133 35.8-61.8 8.933-16.666 16.2-33.4 21.8-50.2 3.733-10.933 6.533-21.733 8.4-32.4 0-1.333-.667-2.4-2-3.2-1.333-.8-4.4-2.266-9.2-4.4-.533-.266-1.2-.533-2-.8-3.733-2.4-6.533-3.6-8.4-3.6-1.067 0-3.467.4-7.2 1.2-4.533 0-8.133.267-10.8.8-2.667.534-6 1.467-10 2.8-9.067 3.467-16.133 7.6-21.2 12.4-2.667 2.4-4.667 4.267-6 5.6a28.851 28.851 0 0 0-3.6 4.4l-1.6 2Zm-4.677 23.315.187-.442a34.933 34.933 0 0 1-3.191-11.986 34.887 34.887 0 0 1 5.745-22.28l-.407.01a34.939 34.939 0 0 0-5.468 24.588 34.958 34.958 0 0 0 3.134 10.11Z" style="fill:#30466e" transform="translate(527.484 131.052)"/><text x="123.716" y="287.348" style="font-family:&quot;HansHand&quot;;font-style:italic;font-size:400px;fill:url(#c)" transform="translate(982.084 118.852)">2</text><path d="M238.225 113.859a81.545 81.545 0 0 1-6.36 1.471 35.015 35.015 0 0 1-6.549.618h-.447c-2.274.316-4.132.4-5.553.4-20.322 0-33.665-8.22-42.2-19.6-5.968-7.958-11.013-20.25-11.582-37.871a35.422 35.422 0 0 1-.018-1.129v-.721c-.329-2.69-.4-4.59-.4-5.679 0-9.887 2.278-19.32 6.913-28.28 3.547-6.858 9.777-14.98 19.709-23.494a35.32 35.32 0 0 1 1.778-1.426c1.88-1.409 4.555-3.508 8.005-6.265 10.142-8.485 18.739-14.586 25.63-18.523.62-.354 1.25-.689 1.89-1.005 20.553-10.132 37.802-17.529 51.697-22.306 16.478-5.664 33.47-8.501 50.978-8.501 2.211 0 4.422.133 6.629.4h1.371c1.163 0 2.325.058 3.483.174 6.054.605 15.194 3.139 26.395 10.101 5.945 3.696 10.971 7.373 15.136 10.944 10.68 7.294 19.817 15.658 27.475 25.018 13.178 16.107 16.911 30.192 16.911 39.563 0 .614-.016 1.227-.048 1.84-.428 8.131-1.55 14.848-3.048 20.197-1.632 5.828-4.63 12.829-9.526 20.756-3.424 5.543-8.342 12.351-14.865 20.34a15072.363 15072.363 0 0 1-26.467 32.283c-.485.591-.99 1.165-1.512 1.722-5.177 5.522-11.852 11.451-20.134 17.662-.168.126-.337.251-.508.374-2.873 2.075-5.183 3.844-6.825 5.458-11.249 11.526-23.016 22.018-35.295 31.485-10.078 7.771-23.016 16.815-38.837 27.098 4.104-.351 8.582-.768 13.431-1.246.25-.024.5-.046.75-.066 14.089-1.083 26.824-1.964 38.205-2.641 11.813-.703 25.172-1.062 40.079-1.062 23.404 0 39.461 4.481 48.823 9.917 16.596 9.636 23.377 23.423 23.377 39.483 0 7.259-1.692 16.22-6.531 26.503a35.122 35.122 0 0 1-1.751 3.262c-6.695 11.027-13.353 19.095-19.458 24.609-9.722 8.782-22.406 14.373-38.715 15-.448.018-.896.026-1.345.026-8.289 0-14.416-1.4-18.561-2.907a45.42 45.42 0 0 1-9.341-4.65c-27.21.531-57.415 1.311-90.613 2.34-34.959 1.084-57.587 1.617-67.885 1.617-12.965 0-22.277-.541-27.95-1.351-16.086-2.298-25.529-9.432-30.947-16.037a127.52 127.52 0 0 0-2.281-2.179c-5.542-4.746-9.603-9.083-12.424-12.772-6.943-9.079-9.798-18.647-9.798-28.261 0-9.917 3.138-20.356 11.87-30.26 12.564-14.474 22.61-25.739 30.129-33.805 8.01-8.593 15.591-16.159 22.727-22.713a324.944 324.944 0 0 1 22.413-18.824c7.11-5.437 16.237-12.064 27.39-19.871l20-14c1.56-1.092 3.086-2.164 4.58-3.216Zm30.685-22.354c6.761-5.242 13.521-10.935 20.282-17.073 6.957-6.314 13.123-13.046 18.474-20.217a82.959 82.959 0 0 0 2.545-3.6 71.3 71.3 0 0 1-4.778-.44c-1.011-.102-1.712-.227-2.117-.227-6.115 0-12.31.966-18.6 2.8-3.194.932-6.495 2.179-9.913 3.717.214 2.847.313 5.409.313 7.683 0 11.799-2.648 20.73-6.206 27.357Zm-7.058-28.22-.234.139a34.96 34.96 0 0 1 .234-.139Zm88.664-15.537c-3.2 9.334-8.133 18.467-14.8 27.4-6.667 8.934-14.333 17.334-23 25.2-8.667 7.867-17.333 15.067-26 21.6-8.667 6.534-19.667 14.467-33 23.8l-20 14c-10.667 7.467-19.4 13.8-26.2 19-6.8 5.2-13.467 10.8-20 16.8-6.533 6-13.467 12.934-20.8 20.8-7.333 7.867-17.133 18.867-29.4 33-2.133 2.4-3.2 4.8-3.2 7.2 0 2.4.867 4.734 2.6 7 1.733 2.267 4.333 4.867 7.8 7.8 2.933 2.667 4.933 4.667 6 6 1.333 1.867 4.333 3.134 9 3.8 4.667.667 12.333 1 23 1 10.133 0 32.4-.533 66.8-1.6 34.4-1.066 65.6-1.866 93.6-2.4 4.8 0 8.2.334 10.2 1 2 .667 3.8 1.8 5.4 3.4a10.248 10.248 0 0 0 3.8 2.4c1.467.534 3.667.8 6.6.8 6.933-.266 12.467-2.266 16.6-6 4.133-3.733 8.467-9.333 13-16.8 2.133-4.533 3.2-8.4 3.2-11.6 0-9.6-12.4-14.4-37.2-14.4-14.133 0-26.8.334-38 1-11.2.667-23.733 1.534-37.6 2.6-18.933 1.867-32.667 2.8-41.2 2.8-5.333 0-10.8-.266-16.4-.8l-19.6-1.2c-14.133-.8-23.533-1.466-28.2-2-4.667-.533-7-1.066-7-1.6 0-.533 1.2-1.6 3.6-3.2l2.4-1.2c7.733-7.466 14.467-13.8 20.2-19 5.733-5.2 11-9.666 15.8-13.4 4.8-3.733 9.2-7 13.2-9.8 4-2.8 8.533-5.666 13.6-8.6 18.4-11.733 33.133-21.866 44.2-30.4 11.067-8.533 21.667-18 31.8-28.4 2.667-2.666 6.4-5.733 11.2-9.2 6.4-4.8 11.6-9.333 15.6-13.6a15013.246 15013.246 0 0 0 26.4-32.2c5.333-6.533 9.4-12.066 12.2-16.6 2.8-4.533 4.667-8.466 5.6-11.8.933-3.333 1.533-7.533 1.8-12.6 0-4.266-3-10.066-9-17.4-6-7.333-13.267-13.8-21.8-19.4-3.2-2.933-7.267-5.933-12.2-9-4.933-3.066-8.733-4.733-11.4-5h-4a20.4 20.4 0 0 0-4-.4c-13.6 0-26.8 2.2-39.6 6.6-12.8 4.4-28.667 11.267-47.6 20.6-5.6 3.2-12.533 8.267-20.8 15.2-4 3.2-7.067 5.6-9.2 7.2-5.6 4.8-9.4 9.134-11.4 13-2 3.867-3 7.934-3 12.2 0 .534.133 1.6.4 3.2v3.2c.267 8.267 1.8 14.267 4.6 18 2.8 3.734 7.533 5.6 14.2 5.6.533 0 1.333-.133 2.4-.4h3.6c5.6-1.066 9.467-2.533 11.6-4.4 2.133-1.866 3.2-6 3.2-12.4 0-2.933-.267-6.533-.8-10.8-.8-4.266-1.2-7.6-1.2-10 0-4.8 1.867-8.133 5.6-10 11.2-6.666 21.6-11.4 31.2-14.2 9.6-2.8 19.067-4.2 28.4-4.2 1.067 0 2.933.134 5.6.4 2.133.267 4 .4 5.6.4.8 0 2 .134 3.6.4 4.8 0 8.667 1.2 11.6 3.6 5.067 4 9.867 8.534 14.4 13.6 4.533 5.067 6.8 9.334 6.8 12.8l-.4.8v.8Z" style="fill:#30466e" transform="translate(982.084 118.852)"/><text x="123.716" y="287.348" style="font-family:&quot;HansHand&quot;;font-style:italic;font-size:400px;fill:url(#d)" transform="translate(1497.48 112.252)">3</text><path d="m185.916 129.748 34.128 34.128c.562.056.872.072.872.072l-33.506-45.115c6.19-20.504 12.913-33.365 17.942-39.555 8.54-10.511 19.629-17.082 33.659-18.848a127.85 127.85 0 0 0 4.542-2.022c-6.48-3.843-12.61-9.652-17.968-18.008-9.873-10.529-12.869-21.594-12.869-31.052 0-5.182 1.169-13.642 7.388-24.007.4-.668.823-1.321 1.267-1.96a35.015 35.015 0 0 1 2.551-4.217c5.523-7.823 12.004-14.344 19.367-19.636 8.275-5.948 20.786-10.885 38.372-11.919.684-.041 1.37-.061 2.055-.061 11.046 0 21.814 1.391 32.307 4.153 8.447 2.223 18.883 5.651 31.278 10.359 10.34 3.605 17.926 6.183 22.745 7.72 14.887 4.176 25.642 11.763 33.162 21.308 9.454 11.999 12.708 23.679 12.708 33.86 0 2.751-.317 5.427-.917 7.994a34.987 34.987 0 0 1-2.523 8.274c-9.242 20.702-22.795 37.474-40.539 50.413a222.241 222.241 0 0 1-6.437 4.512c.944.317 1.793.596 2.545.838 4.131 1.176 9.317 3.241 15.372 6.632a122.882 122.882 0 0 1 13.699 8.937c5.12 3.84 9.576 7.92 13.415 12.187 5.904 6.559 9.342 12.923 11.273 18.531.132.178.264.358.393.539 8.773 12.282 10.519 22.602 10.519 28.743 0 6.513-1.973 16.983-9.788 30.008-3.715 6.191-8.617 13.319-14.737 21.297-4.921 6.692-12.843 13.521-25.262 18.317-20.31 16.883-39.405 30.88-57.243 42.045-19.995 12.517-39.671 21.377-58.924 26.793-13.243 5.103-26.345 8.706-39.292 10.864-12.068 2.011-26.989 3.627-44.769 4.782l-14.078 1.173c-.967.081-1.937.121-2.907.121-7.141 0-21.626-3.464-41.144-15.842a35.658 35.658 0 0 1-.41-.264c-5.501-3.597-9.913-6.296-13.298-7.989a34.72 34.72 0 0 1-1.713-.916c1.018.581 1.861.67 2.297.815a34.998 34.998 0 0 1-5.122-2.173c-8.447-4.408-13.953-7.786-16.708-9.807-13.512-9.909-17.302-22.013-17.302-32.824 0-4.648 1.951-16.694 13.239-32.63l.08-.113c4.318-6.045 8.045-11.681 11.156-16.913 4.225-8.582 8.739-13.718 11.872-16.503 8.44-7.502 17.676-10.441 27.053-10.441h1.415c4.059-.944 7.353-1.2 9.785-1.2 13.745 0 32.333 5.778 38.223 33.267.061.285.129.565.208.836.328.323.712.691 1.017.957.301.264.598.533.89.806 6.268 5.876 11.69 10.374 16.488 13.214 1.362.806 2.996.92 4.774.92 2.123 0 4.353-.365 6.711-.955a35.29 35.29 0 0 1 3.674-.712c8.459-1.175 15.336-2.324 20.623-3.499 4.11-.914 7.819-1.975 11.107-3.254a97.656 97.656 0 0 0 10.309-4.712c4.18-2.213 10.563-5.917 19.169-11.08l.175-.104c11.378-6.737 20.699-12.806 27.831-18.391l-.248-.088c-10.1-3.565-22.651-6.837-37.624-9.927a23.34 23.34 0 0 1-.362-.077c-13.305-2.892-23.423-5.376-30.365-7.401a34.94 34.94 0 0 1-2.161-.707c-1.521-.553-4.138-.855-7.731-1.378-7.883-.91-13.44-2.199-16.776-3.311-22.571-7.524-26.932-23.766-26.932-35.804Zm235.917 13.604a42.756 42.756 0 0 1 1.25 4.404c-.25-1.122-.244-2.772-1.25-4.404ZM255.688 22.428c3.44 4.88 7.316 7.32 11.628 7.32 2.4 0 3.867-1.2 4.4-3.6 0-2.133 1.533-3.666 4.6-4.6 3.067-.933 7.667-1.8 13.8-2.6h.4c3.733-1.6 7.467-2.4 11.2-2.4 4.8 0 10.933 1.867 18.4 5.6 12 5.867 18 11.467 18 16.8 0 2.934-1.533 5.8-4.6 8.6-3.067 2.8-7.533 5.934-13.4 9.4-5.6 2.4-15.467 7.6-29.6 15.6-9.6 5.6-17.667 10.134-24.2 13.6-6.533 3.467-13 6.4-19.4 8.8-6.133 0-10.933 2.134-14.4 6.4-3.467 4.267-7.333 13.467-11.6 27.6v.8c0 1.067 1 1.934 3 2.6 2 .667 5.4 1.267 10.2 1.8 7.2 1.067 12.267 2.134 15.2 3.2 6.4 1.867 15.733 4.134 28 6.8 16.8 3.467 30.867 7.2 42.2 11.2 11.333 4 22.333 10.4 33 19.2 1.867 2.134 2.8 4.667 2.8 7.6 0 6.134-4.467 13.8-13.4 23s-23.533 19.8-43.8 31.8c-9.333 5.6-16.267 9.6-20.8 12-4.533 2.4-9.2 4.534-14 6.4-4.8 1.867-10.2 3.467-16.2 4.8-6 1.334-13.8 2.667-23.4 4-5.333 1.334-10.4 2-15.2 2-8.533 0-16.067-1.933-22.6-5.8-6.533-3.866-14.067-9.8-22.6-17.8-4.267-3.733-7.2-7.2-8.8-10.4-1.6-3.2-2.8-6.666-3.6-10.4-.8-3.733-2.133-5.6-4-5.6-1.067 0-2.667.4-4.8 1.2h-6.4c-1.333 0-2.6.534-3.8 1.6-1.2 1.067-2.6 3.334-4.2 6.8-3.733 6.4-8.267 13.334-13.6 20.8-4.533 6.4-6.8 10.534-6.8 12.4 0 1.6 1 3.134 3 4.6 2 1.467 6.067 3.8 12.2 7 .8.267 2.133.934 4 2 4.267 2.134 9.867 5.467 16.8 10 10.933 6.934 18.4 10.4 22.4 10.4l14.4-1.2c16.533-1.066 30.4-2.533 41.6-4.4 11.2-1.866 22.533-5.066 34-9.6 16.8-4.533 33.933-12.266 51.4-23.2 17.467-10.933 36.2-24.8 56.2-41.6 1.067-1.066 3.2-2.133 6.4-3.2 5.067-1.866 8.533-4.133 10.4-6.8 5.333-6.933 9.6-13.066 12.8-18.4 3.2-5.333 4.8-9.333 4.8-12 0-1.866-1.333-4.666-4-8.4-2.667-3.466-4.267-6.4-4.8-8.8-.533-2.133-2-4.533-4.4-7.2-2.4-2.666-5.2-5.2-8.4-7.6a88.077 88.077 0 0 0-9.8-6.4c-3.333-1.866-6.067-3.066-8.2-3.6-5.067-1.6-14.933-5.066-29.6-10.4-13.333-4.533-24-8.133-32-10.8-8-2.666-14-4.4-18-5.2 1.6-.8 7.6-3.866 18-9.2 23.733-11.733 42-22.266 54.8-31.6 12.8-9.333 22.533-21.466 29.2-36.4v-.8l.4-1.2c0-3.733-1.733-7.8-5.2-12.2-3.467-4.4-8.667-7.533-15.6-9.4-5.067-1.6-13.333-4.4-24.8-8.4-11.2-4.266-20.6-7.4-28.2-9.4-7.6-2-15.4-3-23.4-3-9.067.534-15.733 2.334-20 5.4-4.267 3.067-8 6.867-11.2 11.4l-.4.8c-.267.8-.933 1.867-2 3.2-1.6 2.667-2.4 4.667-2.4 6 0 2.934 1.867 6 5.6 9.2a38.922 38.922 0 0 0 1.913 3.211c.766 9.537 5.316 17.94 12.113 23.767l.24-.138a34.929 34.929 0 0 1-11.351-19.402 35.095 35.095 0 0 1-.543-3.558Zm127.743 219.324c2.297-1.352 3.631-3.052 4.634-4.055-.716.716-1.462 1.4-2.237 2.051-.801.673-1.6 1.341-2.397 2.004ZM221.026-15.933c-1.135 1.982-1.689 3.738-2.114 5.013a35.114 35.114 0 0 1 1.899-4.584l.215-.429Z" style="fill:#30466e" transform="translate(1497.48 112.252)"/><text x="123.716" y="287.348" style="font-family:&quot;HansHand&quot;;font-style:italic;font-size:400px;fill:url(#e)" transform="translate(1980.08 122.452)">4</text><path d="M419.424-57.569c.324.272.655.546.956.787l.207.166c17.081 13.878 19.329 28.359 19.329 34.764 0 3.407-.497 6.795-1.476 10.057-1.551 5.169-3.616 12.407-6.201 21.711l-.035.126c-8.51 30.198-16.211 55.039-23.075 74.531a349.232 349.232 0 0 1-10.258 25.754c6.793.925 12.687 2.193 17.702 3.697 13.787 4.136 21.197 10.865 24.874 15.46a34.992 34.992 0 0 1 6.322 12.249 55.116 55.116 0 0 1 2.147 15.215c0 16.88-6.831 32.147-23.007 44.454-12.174 9.263-26.384 14.146-42.793 14.146-.613 0-1.227-.016-1.839-.048-5.696-.3-15.076-1.594-28.102-4.133-6.282 11.463-11.491 22.28-15.597 32.467-5.376 13.335-8.482 26.387-9.103 39.206l.004-.162c-.472 9.88-5.704 27.055-29.713 38.165-3.638 1.736-6.542 3.231-8.635 4.627a35.002 35.002 0 0 1-19.415 5.878c-8.559 0-16.089-1.819-22.703-4.931-14.296-6.728-22.001-17.866-23.683-33.004a35.131 35.131 0 0 1-.214-3.865s0-2.181.001-2.173c-.336-3.436-.401-5.384-.401-5.827 0-14.207 2.257-28.512 6.875-42.897 1.414-4.404 3.089-9.21 5.031-14.418-3.988.71-7.899 1.42-11.733 2.13-6.933 1.284-14.636 2.826-23.11 4.623-8.598 1.824-18.619 4.037-30.017 6.626-13.097 3.171-23.934 4.536-32.446 4.536-37.919 0-47.4-23.475-47.4-40.6 0-.675.018-1.39.059-2.139-1.536-4.499-2.059-8.799-2.059-12.661 0-7.674 2.142-17.588 10.726-27.792 6.591-8.36 12.326-15.001 17.148-19.973 4.814-4.965 12.152-11.697 22.082-20.123.159-.135.319-.268.481-.4 4.987-4.08 9.026-7.576 12.086-10.523a803.9 803.9 0 0 0 10.143-9.953c4.445-5.026 8.458-9.122 11.991-12.334 4.135-3.759 9.71-7.982 16.853-12.494.28-.177.562-.349.847-.518 4.826-2.86 8.823-5.583 11.862-8.353 3.782-3.449 7.881-7.626 12.28-12.455 10.377-11.742 19.566-20.005 27.184-25.2.261-.178.525-.352.791-.523 2.956-1.9 7.524-5.642 13.858-11.027 7.649-6.501 15.87-13.834 24.667-21.993 8.853-8.212 16.938-15.974 24.252-23.287 5.534-5.534 9.454-9.576 11.508-12.373 8.085-11.751 17.611-20.052 28.027-25.497 11.616-6.071 22.582-8.582 32.614-8.582 21.456 0 33.549 8.739 40.108 18.883ZM294.516 281.348c.8-16.533 4.667-33.4 11.6-50.6 6.933-17.2 16.667-36.066 29.2-56.6.533-.533 1.6-.8 3.2-.8 2.933 0 9.6 1.067 20 3.2 12 2.4 20.533 3.734 25.6 4 8.267 0 15.467-2.333 21.6-7 6.133-4.666 9.2-10.2 9.2-16.6 0-1.866-.267-3.733-.8-5.6-1.067-1.333-3.6-2.6-7.6-3.8-4-1.2-8.8-2.133-14.4-2.8-5.6-.666-11.333-1.2-17.2-1.6-5.867-.4-10.4-.6-13.6-.6h-2.4c-2.133-.266-5.067-.4-8.8-.4-2.4 0-3.6-.8-3.6-2.4 0-1.6.933-4.666 2.8-9.2 11.2-19.466 20.133-38.666 26.8-57.6 6.667-18.933 14.133-43.066 22.4-72.4 2.667-9.6 4.8-17.066 6.4-22.4 0-1.6-2.133-4.133-6.4-7.6-4-3.2-6.533-5.6-7.6-7.2-1.067-3.2-4.933-4.8-11.6-4.8-5.067 0-10.533 1.534-16.4 4.6-5.867 3.067-11.067 7.934-15.6 14.6-2.667 3.734-7.8 9.4-15.4 17-7.6 7.6-16 15.667-25.2 24.2-9.2 8.534-17.8 16.2-25.8 23-8 6.8-13.867 11.4-17.6 13.8-5.867 4-12.8 10.534-20.8 19.6-5.333 5.867-10.267 10.867-14.8 15-4.533 4.134-10.4 8.334-17.6 12.6-5.067 3.2-9.067 6.134-12 8.8-2.933 2.667-6.267 6.134-10 10.4-4 4-7.8 7.734-11.4 11.2-3.6 3.467-8.333 7.6-14.2 12.4-8.8 7.467-15.333 13.4-19.6 17.8-4.267 4.4-9.333 10.334-15.2 17.8-1.867 2.134-2.8 4-2.8 5.6 0 1.334.8 2.8 2.4 4.4 1.333 1.334 2 2.534 2 3.6 0 1.067-.4 2.267-1.2 3.6-.8 1.334-1.2 2.4-1.2 3.2 0 3.734 4.133 5.6 12.4 5.6 6.4 0 14.533-1.2 24.4-3.6 11.733-2.666 22-4.933 30.8-6.8 8.8-1.866 16.8-3.466 24-4.8 7.2-1.333 14.667-2.666 22.4-4 7.733-1.333 17.333-2.8 28.8-4.4l12-2 1.2-.4c5.333-.8 8.533-1.2 9.6-1.2 1.333 0 2 .4 2 1.2 0 .8-1.6 3.6-4.8 8.4-.8 1.334-1.733 2.8-2.8 4.4-1.067 2.934-3.2 8-6.4 15.2-6.933 16-12.133 29.4-15.6 40.2-3.467 10.8-5.2 21.534-5.2 32.2 0 .267.133 1.6.4 4v4c.267 2.4 1.533 4.134 3.8 5.2 2.267 1.067 4.867 1.6 7.8 1.6 3.2-2.133 7.6-4.533 13.2-7.2 6.4-2.933 9.6-5.6 9.6-8Zm19.2-141.2c-1.067 1.6-7.067 3.334-18 5.2-16.533 2.667-31.2 5.734-44 9.2-7.467 1.6-16.4 4-26.8 7.2-5.6 1.6-9.2 2.534-10.8 2.8-.533 0-5.6.4-15.2 1.2-12.533 1.067-20.267 1.6-23.2 1.6-4 0-6-.533-6-1.6 0-.8 1.067-2 3.2-3.6 8.267-7.2 15.6-13.666 22-19.4 6.4-5.733 13.067-11.8 20-18.2 10.667-9.866 19.333-17.733 26-23.6 1.867-1.866 4.8-4.133 8.8-6.8 3.2-2.4 6.6-4.866 10.2-7.4 3.6-2.533 8.333-6.266 14.2-11.2 5.867-4.933 13.733-11.8 23.6-20.6s21.733-19.733 35.6-32.8c10.4-10.666 17.333-16 20.8-16 1.333 0 2 1.067 2 3.2 0 20.8-3.667 41.067-11 60.8-7.333 19.734-17.8 43.067-31.4 70Zm-24.586-29.189a944.843 944.843 0 0 0 1.948-4.024 273.745 273.745 0 0 1-5.935 4.687c1.317-.224 2.646-.445 3.987-.663Z" style="fill:#30466e" transform="translate(1980.08 122.452)"/><text x="123.716" y="287.348" style="font-family:&quot;HansHand&quot;;font-style:italic;font-size:400px;fill:url(#f)" transform="translate(2457.28 118.652)">5</text><path d="M100.673 216.141a35.252 35.252 0 0 1 2.195-2.609c9.319-10.035 17.382-17.005 23.834-21.305 6.642-4.428 17.564-9.392 33.173-13.842 6.392-2.194 11.736-2.837 15.841-2.837 12.093 0 20.502 4.805 26.549 10.852 6.046 6.046 10.851 14.455 10.851 26.548 0 3.678-.539 8.437-2.472 14.02 5.326.651 10.616.98 15.872.98 26.702 0 51.879-8.727 75.73-25.588 3.376-2.951 7.789-6.501 13.27-10.612.19-.142.381-.282.573-.42 1.542-1.109 3.288-2.493 4.586-3.549 1.74-4.432 2.841-8.401 2.841-12.031 0-.483-.065-.919-.451-1.196-6.504-4.683-16.227-7.31-28.65-9.404-30.743-4.293-54.499-10.505-71.433-17.981-32.495-14.344-43.066-35.883-43.066-54.619 0-6.225 1.094-12.464 3.429-18.689.089-.237.18-.474.274-.709 7.344-18.36 19.148-36.528 35.838-54.219 14.566-15.44 30.727-30.016 48.497-43.708a35.346 35.346 0 0 1 2.812-1.955c.218-.136.356-.423.601-.668a34.972 34.972 0 0 1 2.141-1.97c11.64-9.85 22.854-12.682 31.808-12.682 5.308 0 14.191 1.326 26.255 5.669.371.134.739.273 1.104.419.448.142 1.236.39 1.898.588 4.584 1.375 8.456 3.108 11.724 5.084 1.352-.335 2.672-.658 3.959-.971 9.21-2.237 19.472-4.802 30.786-7.697.267-.068.535-.133.804-.195 13.564-3.13 25.693-6.064 36.387-8.803 10.606-2.716 23.798-6.406 39.578-11.063A34.913 34.913 0 0 1 463-60.132c4.757-1.069 7.85-1.12 9.116-1.12 12.028 0 20.494 4.293 26.508 9.382 8.062 6.821 13.692 16.375 13.692 30.018 0 7.561-1.919 15.909-7.32 24.55-.182.291-.368.579-.558.865-.14.209-.309.5-.518.864-5.904 11.872-13.973 18.937-22.151 23.026a35.03 35.03 0 0 1-7.019 2.614c-13.58 3.456-24.389 6.518-32.413 9.234-8.371 2.833-17.449 6.053-27.232 9.657-8.979 3.366-16.421 6.027-22.321 7.994-5.916 1.972-13.223 3.974-21.934 5.952-9.19 3.625-16.84 6.368-22.937 8.264-.615.192-1.224.38-1.827.566 9.096 2.407 17.04 4.739 23.836 6.99 34.999 11.593 52.987 29.549 59.55 46.173.3.761.573 1.532.82 2.312 4.401 13.937 6.424 26.803 6.424 38.539 0 13.96-3.014 25.187-7.667 33.976a35.418 35.418 0 0 1-1.321 2.283c-14.074 22.334-30.835 42.059-50.262 59.192-19.369 17.081-39.166 30.588-59.297 40.654a35.038 35.038 0 0 1-6.038 2.349c-1.561.446-3.463 1.085-4.56 1.462-4.971 4.379-10.716 7.47-17.246 9.251-2.604.71-7.851 1.667-15.817 2.153l-4.446.342c-23.267 2.405-40.468 4.075-51.605 5.014-12.173 1.027-22.954 1.524-32.341 1.524-13.866 0-26.923-1.244-39.177-3.662-11.109-2.193-25.448-6.016-42.989-11.571a35.033 35.033 0 0 1-1.723-.595c-21.374-8.015-29.111-23.006-29.111-40.372 0-9.805 6.231-28.767 27.557-51.607Zm49.443 29.607c1.333-2.133 2.6-3.666 3.8-4.6 1.2-.933 2.733-1.666 4.6-2.2a22.257 22.257 0 0 0 5.8-3.2c1.733-1.333 3.667-3.866 5.8-7.6l.4-.4c2.667-4 4.6-7.133 5.8-9.4 1.2-2.266 1.8-4.066 1.8-5.4 0-1.6-.8-2.4-2.4-2.4-1.333 0-3.067.4-5.2 1.2-11.467 3.2-19.6 6.4-24.4 9.6-4.8 3.2-10.667 8.534-17.6 16-.8 1.067-1.467 1.867-2 2.4-12.267 13.067-18.4 22.4-18.4 28 0 3.467 2.133 6 6.4 7.6 16 5.067 29.067 8.6 39.2 10.6 10.133 2 20.933 3 32.4 3 8.533 0 18.333-.466 29.4-1.4 11.067-.933 28.2-2.6 51.4-5l5.2-.4c4.533-.266 7.533-.6 9-1a8.41 8.41 0 0 0 3.8-2.2c1.333-1.333 3.2-2.666 5.6-4 2.4-1.333 6.4-2.8 12-4.4 17.6-8.8 34.867-20.666 51.8-35.6 16.933-14.933 31.533-32.133 43.8-51.6 2.4-4.533 3.6-10.4 3.6-17.6 0-8.533-1.6-17.866-4.8-28-4-10.133-16.667-18.733-38-25.8-21.333-7.066-54.533-14.866-99.6-23.4-5.067-1.333-7.6-3.733-7.6-7.2 0-2.933 1.533-6.266 4.6-10 3.067-3.733 7.533-8.8 13.4-15.2 5.867-6.133 9.867-10.533 12-13.2 5.6 6.934 10.133 10.4 13.6 10.4 1.867 0 5.067-1.333 9.6-4l1.6-1.2c2.4-1.6 4.6-2.733 6.6-3.4 2-.666 4.733-1.4 8.2-2.2 4.8-1.333 10.2-2.933 16.2-4.8 6-1.866 13.667-4.666 23-8.4 8.533-1.866 15.6-3.733 21.2-5.6 5.6-1.866 12.667-4.4 21.2-7.6 10.133-3.733 19.533-7.066 28.2-10 8.667-2.933 20.333-6.266 35-10 2.667-1.333 4.933-4 6.8-8 1.067-1.866 1.867-3.2 2.4-4 1.333-2.133 2-4.133 2-6 0-2.933-1.733-4.4-5.2-4.4-.267 0-.933.134-2 .4-1.067.267-1.867.4-2.4.4-16.267 4.8-29.867 8.6-40.8 11.4-10.933 2.8-23.333 5.8-37.2 9a2635.024 2635.024 0 0 1-31.2 7.8c-9.333 2.267-20.4 5.134-33.2 8.6l1.2-3.2c1.333-3.733 2-6.133 2-7.2 0-1.066-1.333-2-4-2.8-2.667-.8-4.267-1.333-4.8-1.6-6.667-2.4-11.467-3.6-14.4-3.6-2.667 0-5.733 1.467-9.2 4.4-2.4 2.4-4.667 4.267-6.8 5.6-16.267 12.534-31.067 25.867-44.4 40-13.333 14.134-22.933 28.534-28.8 43.2-.8 2.134-1.2 4.267-1.2 6.4 0 8.534 7.4 16.067 22.2 22.6 14.8 6.534 35.667 11.667 62.6 15.4 19.2 3.2 33.8 8.4 43.8 15.6 10 7.2 15 17.067 15 29.6 0 8.8-2.533 18.934-7.6 30.4-1.067 2.934-5.867 7.467-14.4 13.6-5.333 4-9.467 7.334-12.4 10-30.667 22.134-63.2 33.2-97.6 33.2-24.8 0-50.267-5.733-76.4-17.2ZM464.022-60.256a35.032 35.032 0 0 1 3.694-.196c-.9 0-2.125-.011-3.694.196ZM100.71 216.101l.289-.308c.252-.269.508-.533.768-.793-.27.27-.654.61-1.057 1.101Zm207.53 88.961c.59-.458 1.024-.964 1.425-1.365a46.85 46.85 0 0 1-1.425 1.365Z" style="fill:#30466e" transform="translate(2457.28 118.652)"/><text x="123.716" y="287.348" style="font-family:&quot;HansHand&quot;;font-style:italic;font-size:400px;fill:url(#g)" transform="translate(2998.88 141.852)">6</text><path d="m325.737-96.229.007-.006 1.566-1.304c.302-.252.608-.499.918-.74 13.481-10.485 25.199-12.973 32.688-12.973 5.2 0 11.58.941 18.938 3.765.768.226 1.83.228 3.145.301l-.243-.017c34.754 1.829 40.76 26.776 40.76 37.751 0 4.296-.732 10.277-3.955 17.365-2.029 6.408-4.681 13.017-8.001 19.808a189.987 189.987 0 0 1-12.013 21.077c-5.287 8.029-10.496 14.299-15.392 18.999-12.157 11.67-24.086 14.551-32.839 14.551-1.509 0-3.015-.097-4.509-.291a1037.078 1037.078 0 0 0-15.19 17.52c-12.983 15.32-24.476 29.405-34.474 42.259a1215.995 1215.995 0 0 0-13.787 18.041c9.47-1.543 19.322-2.329 29.56-2.329 8.406 0 17.904.595 28.49 1.84l-.148-.009c5.593.638 13.512 2.795 22.812 8.875 4.626 3.025 9.539 6.737 14.699 11.185 5.031 4.337 9.351 8.52 12.994 12.51 6.496 7.115 9.919 13.3 11.68 17.689 1.674 4.326 3.673 12.53 3.673 24.91 0 9.017-.806 18.536-2.476 28.554-1.998 11.987-5.223 21.907-9.219 29.899a34.845 34.845 0 0 1-1.015 1.884c-5.107 8.821-10.079 14.962-14.258 18.909-4.336 4.095-9.554 7.921-15.78 11.323-1.388.807-2.614 1.627-3.488 2.702l-.146.179c-7.05 8.56-15.948 15.306-26.867 20-7.021 5.849-16.697 11.483-29.428 16.184-9.335 3.446-21.033 7.198-35.108 11.22l-.406.113c-7.398 2.018-12.831 3.584-16.284 4.746a35.06 35.06 0 0 1-4.072 2.392c-5.123 2.562-12.607 4.895-22.853 4.895-2.266 0-6.152-.136-11.655-.46-.372-.022-.743-.05-1.114-.083-4.576-.417-8.319-.657-11.231-.657h-6.4c-24.941 0-41.087-5.892-49.631-12.127-3.196-2.332-6.454-5.282-9.668-8.925-1.03.229-2.088.452-3.177.67-7.46 2.811-12.833 3.182-15.524 3.182-12.427 0-22.256-4.932-29.713-14.322-4.26-5.364-8.887-14.067-8.887-27.478 0-.53.012-1.06.036-1.589.487-10.718 4.244-23.506 13.257-37.634 4.249-6.661 9.315-13.422 15.235-20.255 1.31-6.49 3.419-13.896 6.506-22.161 3.196-10.401 7.221-18.941 11.716-25.782 3.651-5.555 8.614-12.167 14.962-19.785.211-.253.426-.503.644-.75 6.538-7.41 11.721-14.008 15.426-19.892a34.78 34.78 0 0 1 1.174-1.746c9.906-13.816 17.859-25.154 23.854-34.017 5.502-8.132 9.769-14.817 12.759-20.079 2.597-4.571 4.703-8.661 6.261-12.297 1.502-3.505 2.844-7.264 4.046-11.27a35.015 35.015 0 0 1 7.249-13.065c5.62-6.386 13.911-16.486 24.895-30.28l.152-.19c17.32-21.443 32.381-39.168 45.165-53.189 13.758-15.09 28.33-28.277 43.684-39.596Zm-73.028 416.443c2.697-1.129 3.955-3.116 4.956-4.117a35.003 35.003 0 0 1-4.956 4.117Zm94.607-388.866c-13.867 10.134-27 22-39.4 35.6-12.4 13.6-27 30.8-43.8 51.6-11.467 14.4-20.133 24.934-26 31.6-1.6 5.334-3.4 10.334-5.4 15-2 4.667-4.667 9.934-8 15.8-3.333 5.867-8.067 13.334-14.2 22.4-6.133 9.067-14.267 20.667-24.4 34.8-4.533 7.2-10.8 15.334-18.8 24.4-5.333 6.4-9.533 11.934-12.6 16.6-3.067 4.667-5.667 10.6-7.8 17.8-4.267 11.2-6.4 20-6.4 26.4-7.733 8-14.067 15.867-19 23.6-4.933 7.734-7.533 14.534-7.8 20.4 0 4.534 1.2 6.8 3.6 6.8.8 0 2.4-.533 4.8-1.6l1.2-.4c7.467-1.333 13.067-2.866 16.8-4.6 3.733-1.733 6.8-4.466 9.2-8.2.8 1.867 1.867 4.134 3.2 6.8 4.267 9.6 8.867 16.2 13.8 19.8 4.933 3.6 14.6 5.4 29 5.4h6.4c3.733 0 8.533.267 14.4.8 4.533.267 7.733.4 9.6.4 3.2 0 5.6-.4 7.2-1.2 1.333-1.333 3.933-2.666 7.8-4 3.867-1.333 10.2-3.2 19-5.6 13.067-3.733 23.933-7.2 32.6-10.4 8.667-3.2 15.267-6.8 19.8-10.8 1.333-1.6 3.733-3.066 7.2-4.4 5.867-2.4 10.667-5.866 14.4-10.4 3.467-4.266 8-8 13.6-11.2 3.467-1.866 6.4-3.933 8.8-6.2 2.4-2.266 5.067-5.933 8-11 2.667-5.333 4.667-12 6-20 1.333-8 2-15.6 2-22.8 0-6.133-.4-10.133-1.2-12-.533-1.6-2.2-3.933-5-7-2.8-3.066-6.133-6.266-10-9.6-3.867-3.333-7.533-6.133-11-8.4-3.467-2.266-6-3.4-7.6-3.4-9.067-1.066-17.2-1.6-24.4-1.6-10.133 0-19.8.934-29 2.8a92.424 92.424 0 0 0-26.2 9.6c-.267.267-3.067 1.6-8.4 4-11.733 5.334-22.333 10.467-31.8 15.4-9.467 4.934-19.933 11.134-31.4 18.6 8-10.666 16.133-22.466 24.4-35.4 8.267-12.933 15.2-24.2 20.8-33.8 2.4-4.266 6.8-10.933 13.2-20 6.4-9.066 14.733-20.2 25-33.4s22.067-27.666 35.4-43.4c13.333-15.733 27.467-31.466 42.4-47.2-1.067 5.334-1.6 9.067-1.6 11.2 0 3.467 1.867 5.6 5.6 6.4 2.4 0 5.267-1.6 8.6-4.8 3.333-3.2 6.8-7.533 10.4-13 3.6-5.466 6.867-11.2 9.8-17.2 2.933-6 5.2-11.8 6.8-17.4 1.067-1.866 1.6-3.333 1.6-4.4 0-1.6-2.533-2.533-7.6-2.8-5.867-.533-10.267-1.333-13.2-2.4-2.667-1.066-4.933-1.6-6.8-1.6-2.667 0-6.4 1.867-11.2 5.6l-2.4 2Zm-53.6 232c14.667 0 25.467 3.467 32.4 10.4 6.933 6.934 10.4 15.2 10.4 24.8 0 7.734-1.867 14.4-5.6 20-6.667 7.2-15.067 13.867-25.2 20-10.133 6.134-22.533 11.467-37.2 16-1.333.534-3.2 1.2-5.6 2a58.72 58.72 0 0 1-10.8 3c-3.733.667-10.133 1-19.2 1-18.4-.266-32.4-2.2-42-5.8-9.6-3.6-15.6-8.6-18-15-.533-2.666-.8-4.933-.8-6.8 0-2.933.733-5.6 2.2-8 1.467-2.4 4.2-5.2 8.2-8.4 4.533-3.466 10.4-9.2 17.6-17.2 5.067-5.866 8.4-9.066 10-9.6 16.533-8 31.267-14.2 44.2-18.6 12.933-4.4 26.067-7 39.4-7.8Zm7.694 35.19.024-.022c-.025-.001-.051-.003-.067-.019l.043.041Zm-77.554 26.726c2.91.146 6.017.234 9.318.284 6.021 0 10.29-.008 12.79-.455 1.516-.27 2.98-.67 4.388-1.212.495-.19.993-.369 1.496-.537 1.57-.523 2.797-.943 3.67-1.292.874-.35 1.762-.665 2.662-.943 11.576-3.578 21.415-7.663 29.413-12.503 4.972-3.01 9.385-6.153 13.183-9.501-1.63-.281-4.091-.651-6.195-.738h-.013c-9.802.697-19.46 2.678-28.979 5.916-10.796 3.673-22.956 8.753-36.504 15.186a111.26 111.26 0 0 0-2.48 2.756c-.156.181-.314.36-.474.537-.769.855-1.528 1.689-2.275 2.502Zm110.688 62.162c2.102-1.426 3.393-3.191 4.46-4.471a35.126 35.126 0 0 1-3.731 3.838 67.7 67.7 0 0 1-.729.633Z" style="fill:#30466e" transform="translate(2998.88 141.852)"/><text x="123.716" y="287.348" style="font-family:&quot;HansHand&quot;;font-style:italic;font-size:400px;fill:url(#h)" transform="translate(3501.08 121.252)">7</text><path d="M165.476 139.964c-7.478-8.429-11.16-19.058-11.16-31.816 0-11.778 3.533-22.378 10.6-31.8 7.945-10.593 17.241-15.947 26.854-17.904 7.903-4.303 15.261-5.696 21.546-5.696 4.883 0 10.16.789 15.744 2.762 1.375.364 2.729.811 4.055 1.342 1.148.459 2.636.97 3.701 1.324.188-.028.383-.06.585-.094 4.84-3.964 9.154-7.616 12.938-10.96 4.853-4.289 9.911-8.992 15.176-14.105a169.428 169.428 0 0 0-4.871-.269h-8.928c-.896 0-1.791-.034-2.684-.103-2.243-.172-3.881-.297-4.916-.297-2.628 0-6.809.131-12.543.37-.485.02-.971.03-1.457.03h-8c-11.165 0-19.966-1.795-26.564-4.333a34.863 34.863 0 0 1-3.812-1.734c-23.397-12.387-25.424-30.628-25.424-36.133 0-2.844.217-13.088 10.173-25.888.311-.4.631-.793.959-1.179a78.45 78.45 0 0 0 5.584-7.378c7.44-24.948 26.145-30.155 37.884-30.155 2.372 0 5.268.221 8.617.953 8.806.309 18.175.82 28.107 1.538 11.293.817 25.376 2.039 42.248 3.672.188.018.377.038.565.059 13.555 1.535 23.72 2.566 30.497 3.078 6.066.457 11.388.7 15.966.7 17.789 0 30.559 5.735 39.453 13.641 10.308 9.162 17.147 22.234 17.147 40.559 0 16.042-5.945 34.759-20.72 55.021a34.848 34.848 0 0 1-2.693 3.26 290.632 290.632 0 0 0-3.037 3.318 34.948 34.948 0 0 1-2.775 3.307 16347.05 16347.05 0 0 0-10.671 11.242c13.266 10.22 15.096 22.413 15.096 29.852 0 8.687-3.011 24.128-22.557 35.71-4.628 2.743-12.688 6.526-24.343 10.982a35.009 35.009 0 0 1-6.953 1.866c-.729.361-1.469.697-2.221 1.006-6.442 2.653-14.181 4.932-23.276 6.637-5.279.99-13.048 1.753-23.315 2.133-6.043 6.422-12.866 13.522-20.472 21.297-8.178 8.413-13.897 14.56-17.054 18.535-.44.554-.923 1.015-1.086 1.602-.047.17-.095.339-.145.508-1.869 6.354-5.699 15.174-12.053 26.2-4.692 8.142-11.723 19.669-21.107 34.573l-.026.041a1582.24 1582.24 0 0 0-4.805 7.654c.928 3.501 1.413 7.377 1.413 11.656 0 6.337-1.82 16.402-10.157 28.015-5.16 9.014-12.856 16.14-23.526 20.923-6.648 2.98-17.152 5.587-31.824 6.045a34.998 34.998 0 0 1-32.871-20.316c-5.411-11.723-8.022-23.693-8.022-35.867 0-16.54 4.247-32.721 13.138-48.435 6.334-11.196 15.903-25.232 28.858-42.024 7.065-9.338 12.751-17.1 17.049-23.294 3.118-4.494 5.704-9.115 7.721-13.884a35.03 35.03 0 0 1 2.222-4.37 85.62 85.62 0 0 1 2.172-3.377ZM196.4 57.758c1.503-.142 3.01-.21 4.516-.21-1.318 0-2.844.007-4.516.21Zm128.454 86.949c-.786.126-1.576.225-2.369.298.671-.061 1.515.081 2.369-.298Zm6.862-133.359c-7.733 9.6-14.8 18-21.2 25.2-6.4 7.2-12.733 13.867-19 20-6.267 6.134-12.267 11.734-18 16.8-5.733 5.067-12.6 10.8-20.6 17.2-8.533 1.867-14.533 2.8-18 2.8-3.2 0-8.133-1.333-14.8-4a3.546 3.546 0 0 1-1.6-.4c-1.867-.8-3.6-1.2-5.2-1.2-1.867 0-4 .8-6.4 2.4-2.4 1.6-4.4 2.4-6 2.4-2.933 0-5.6 1.6-8 4.8-2.4 3.2-3.6 6.8-3.6 10.8 0 5.6 2.533 9.734 7.6 12.4 4.267 0 8.133.2 11.6.6 3.467.4 9.067 1.267 16.8 2.6-1.867 1.067-4.333 3.267-7.4 6.6-3.067 3.334-6.4 7.134-10 11.4-3.6 4.267-6.733 8.267-9.4 12-2.667 3.734-4.4 6.267-5.2 7.6-2.933 6.934-6.667 13.667-11.2 20.2-4.533 6.534-10.533 14.734-18 24.6-11.733 15.2-20.467 27.867-26.2 38-5.733 10.134-8.6 20.534-8.6 31.2 0 7.2 1.6 14.267 4.8 21.2 8.533-.266 14.733-1.266 18.6-3 3.867-1.733 6.6-4.333 8.2-7.8 3.2-4 4.8-7.066 4.8-9.2 0-1.333-.533-2.2-1.6-2.6-1.067-.4-2.533-.866-4.4-1.4-2.4-.533-3.6-1.066-3.6-1.6 0-1.333 1.467-4.533 4.4-9.6 2.933-5.066 7.6-12.666 14-22.8 9.067-14.4 15.867-25.533 20.4-33.4 4.533-7.866 7.467-14.066 8.8-18.6 1.333-4.8 3.8-9.466 7.4-14 3.6-4.533 10.067-11.6 19.4-21.2 12-12.266 22-22.8 30-31.6 15.2 0 26-.6 32.4-1.8 6.4-1.2 11.867-2.733 16.4-4.6 3.733-1.866 7.067-2.933 10-3.2 9.067-3.466 15.4-6.266 19-8.4 3.6-2.133 5.4-4 5.4-5.6 0-.8-.8-1.733-2.4-2.8-.8-.533-1.733-.8-2.8-.8-1.333 0-3.333.4-6 1.2-2.933 1.067-5.2 1.6-6.8 1.6-2.667 0-4.933-.933-6.8-2.8-1.6-1.6-5.733-2.666-12.4-3.2-6.4-.266-11.467-1.066-15.2-2.4a1266.879 1266.879 0 0 0 21.4-19.6c6.533-6.133 11.733-11.133 15.6-15 3.867-3.866 7-7.066 9.4-9.6 2.4-2.533 6.133-6.466 11.2-11.8 0-.266 1.867-2.4 5.6-6.4 9.333-12.8 14-24.266 14-34.4 0-12.8-7.2-19.2-21.6-19.2-5.333 0-11.533-.266-18.6-.8-7.067-.533-17.667-1.6-31.8-3.2-16.533-1.6-30.333-2.8-41.4-3.6-11.067-.8-21.4-1.333-31-1.6-1.333-.533-2.4-.8-3.2-.8-2.4 0-4.133 2.934-5.2 8.8-3.2 5.6-7.067 11.067-11.6 16.4-1.867 2.4-2.8 3.867-2.8 4.4 0 1.067 2.267 2.8 6.8 5.2 3.467 1.334 8.133 2 14 2h8c6.4-.266 11.067-.4 14-.4 1.6 0 4.133.134 7.6.4h9.6c21.867.8 45.333 5.334 70.4 13.6Z" style="fill:#30466e" transform="translate(3501.08 121.252)"/><text x="123.716" y="287.348" style="font-family:&quot;HansHand&quot;;font-style:italic;font-size:400px;fill:url(#i)" transform="translate(3973.68 123.852)">8</text><path d="M153.438 136.141c.231-.236.473-.485.729-.741.485-.485.984-.956 1.496-1.411 8.586-7.632 16.068-12.163 21.792-14.548.311-.13.623-.255.938-.376 1.049-.562 6.326-3.404 11.054-6.212l.294-.172c2.187-1.27 4.263-2.468 6.227-3.595-5.767-15.709-8.452-30.332-8.452-43.738 0-17.807 4.412-34.612 13.316-50.396.267-.473.544-.939.832-1.399 23.888-38.09 65.397-66.199 126.406-81.37.369-.092.74-.178 1.113-.258 13.41-2.873 28.25-4.377 44.533-4.377 13.058 0 24.804 1.041 35.25 3 17.211 3.227 28.346 9.484 34.801 15.4.373.342.739.693 1.098 1.052 11.868 11.867 16.651 24.997 16.651 38.348 0 9.991-3.692 25.272-14.099 44.837l-.233.43c-6.822 12.403-16.861 26.517-30.35 42.176-13.139 15.254-28.445 29.551-45.964 42.841-.268.203-.538.402-.811.597a148.768 148.768 0 0 1-6.552 4.447c-2.864 1.823-6.268 3.602-10.273 5.212a54.95 54.95 0 0 0-4.785 2.674 43.298 43.298 0 0 1 8.477 7.518c4.783 1.914 10.208 4.479 16.234 7.788 8.486 4.659 16.902 10.295 25.221 16.95 9.06 7.249 16.521 14.829 22.501 22.622 9.571 12.471 13.606 24.648 14.186 35.669.032.612.048 1.226.048 1.839 0 20.208-3.524 35.706-8.873 46.801-6.801 14.107-20.551 26.848-44.565 32.988a49.63 49.63 0 0 1-9.909 6.516c-4.257 2.128-11.163 4.458-21.068 5.284-5.943 1.013-13.696 2.455-23.233 4.315-26.043 5.442-45.318 7.896-57.752 7.896-17.385 0-31.251-.214-41.599-.628-11.4-.456-20.442-1.181-27.13-2.093-8.697-1.186-15.581-2.825-20.72-4.604-4.718-1.633-9.996-3.866-15.803-6.77a35.563 35.563 0 0 1-1.406-.743c-13.827-7.717-26.78-17.11-38.839-28.204-14.577-13.412-24.196-27.588-29.638-41.971a36.239 36.239 0 0 1-.469-1.319c-1.966-5.897-2.996-12.115-2.996-18.668 0-16.071 5.78-33.342 19.827-50.765 4.659-6.124 10.051-11.794 16.203-16.985 6.102-5.149 11.866-9.187 17.205-12.238a35.012 35.012 0 0 1 9.087-3.619Zm26.678 143.207c4.267 2.134 8.133 3.8 11.6 5 3.467 1.2 8.133 2.2 14 3 5.867.8 13.8 1.4 23.8 1.8 10 .4 23.4.6 40.2.6 10.933 0 27.867-2.4 50.8-7.2 10.933-2.133 19.6-3.733 26-4.8 4.533-.266 7.733-.866 9.6-1.8a14.782 14.782 0 0 0 4.8-3.8c1.867-2.133 4.533-3.6 8-4.4 13.6-2.666 22.2-7.733 25.8-15.2 3.6-7.466 5.4-18 5.4-31.6-.267-5.066-2.6-10.466-7-16.2-4.4-5.733-9.933-11.266-16.6-16.6-6.667-5.333-13.4-9.866-20.2-13.6-6.8-3.733-12.467-6.266-17-7.6-3.467-1.066-5.867-2.933-7.2-5.6-1.067-1.866-2.267-3.2-3.6-4-8.267-5.333-21.2-15.333-38.8-30l-2.8-2.4c8.8-3.733 19.733-10.133 32.8-19.2 2.933-1.866 5.467-3.6 7.6-5.2 4-2.666 8-4.933 12-6.8 2.133-.8 3.933-1.666 5.4-2.6a113.719 113.719 0 0 0 5-3.4c15.467-11.733 29-24.333 40.6-37.8 11.6-13.466 20.333-25.533 26.2-36.2 6.667-12.533 10-22 10-28.4 0-4.8-2.133-9.333-6.4-13.6-3.2-2.933-9.067-5.2-17.6-6.8-8.533-1.6-18.133-2.4-28.8-2.4-13.6 0-26 1.2-37.2 3.6-50.4 12.534-85.467 34.534-105.2 66-5.867 10.4-8.8 21.467-8.8 33.2 0 17.334 6.533 37.067 19.6 59.2a171.75 171.75 0 0 0-15 7.2c-4.933 2.667-11.533 6.4-19.8 11.2-8.533 5.067-14 8-16.4 8.8-3.2 1.334-7.2 4.134-12 8.4-3.2 3.2-6.067 5.6-8.6 7.2-2.533 1.6-5.4 2.534-8.6 2.8-3.733 2.134-7.733 5-12 8.6-4.267 3.6-8 7.534-11.2 11.8-8.267 10.134-12.4 19.867-12.4 29.2 0 2.667.4 5.2 1.2 7.6 3.733 9.867 10.6 19.4 20.6 28.6 10 9.2 20.733 17 32.2 23.4Zm169.2-30.8c-15.467 6.134-31.267 10-47.4 11.6-16.133 1.6-36.467 2.4-61 2.4-2.933 0-5.733-.333-8.4-1-2.667-.666-5.867-1.8-9.6-3.4-1.333-.8-3.6-1.733-6.8-2.8-8.8-3.466-17.2-7.6-25.2-12.4-8-4.8-15.733-11.866-23.2-21.2-2.667-4.8-4-8.266-4-10.4 0-1.333.4-2.666 1.2-4 .533-.8.933-1.6 1.2-2.4 1.867-5.6 6.667-11.6 14.4-18 7.733-6.4 16.667-12.6 26.8-18.6 10.133-6 19.867-11.266 29.2-15.8 9.333-4.533 17.2-8.133 23.6-10.8 5.333 5.067 9.8 9.267 13.4 12.6 3.6 3.334 6.933 6.267 10 8.8a139.614 139.614 0 0 0 9.2 7c3.067 2.134 8.6 5.867 16.6 11.2.267.534.933 1.067 2 1.6 5.6 3.467 9.2 5.734 10.8 6.8 18.667 11.734 31.2 20.534 37.6 26.4 6.4 5.867 9.6 12.667 9.6 20.4-.267 3.467-1.133 5.734-2.6 6.8-1.467 1.067-3.933 1.867-7.4 2.4-4 .8-7.333 1.734-10 2.8Zm-95.997-65.249-1.511.732c-8.523 4.14-17.407 8.955-26.66 14.434-6.97 4.127-13.272 8.349-18.882 12.697a33.927 33.927 0 0 0 2.658 1.774 134.868 134.868 0 0 0 19.274 9.552c4.023 1.386 7.229 2.765 9.676 3.987 1.183.494 2.218.89 3.131 1.118-.032-.008-.054-.045-.089-.045 23.144 0 42.327-.72 57.546-2.229 3.94-.391 7.855-.952 11.745-1.682a982.004 982.004 0 0 0-6.717-4.256 34.215 34.215 0 0 1-.788-.511c-1.364-.909-4.333-2.77-8.887-5.593-2.72-1.514-5.017-3.157-6.961-4.841-6.65-4.445-11.358-7.631-14.125-9.556a174.965 174.965 0 0 1-11.504-8.748 252.163 252.163 0 0 1-7.906-6.833Zm71.597-109.151c-4 2.4-8.8 6-14.4 10.8-4.267 3.734-8 6.667-11.2 8.8-3.2 2.134-7.333 3.867-12.4 5.2-1.867.534-4 1.334-6.4 2.4-3.467 1.6-7.2 2.934-11.2 4-9.067-13.333-13.6-26.266-13.6-38.8 0-12.533 4.533-25.6 13.6-39.2 6.4-10.4 15.867-18.066 28.4-23 12.533-4.933 26.267-7.666 41.2-8.2h6.4c10.133.267 18.267 1.467 24.4 3.6 6.133 2.134 10.4 6.934 12.8 14.4v.8l.4.8c0 2.934-1.533 6.8-4.6 11.6-3.067 4.8-7.267 10.067-12.6 15.8-5.333 5.734-11.533 11.334-18.6 16.8-7.067 5.467-14.467 10.2-22.2 14.2Zm-29.96-21.685c4.451-3.466 8.448-6.224 11.953-8.327a34.894 34.894 0 0 1 1.927-1.075c5.637-2.916 11.036-6.349 16.206-10.291-5.063.96-9.9 2.333-14.507 4.146-4.937 1.943-8.89 4.679-11.411 8.776-.222.361-.451.718-.686 1.071-1.293 1.939-2.464 3.835-3.482 5.7Z" style="fill:#30466e" transform="translate(3973.68 123.852)"/><text x="123.716" y="287.348" style="font-family:&quot;HansHand&quot;;font-style:italic;font-size:400px;fill:url(#j)" transform="translate(4498.28 99.652)">9</text><path d="m185.978 170.386-.721.092a34.77 34.77 0 0 1-1.987.191c-.546.08-1.681.25-2.6.403-.627.105-1.257.192-1.889.262-9.302 1.034-14.998 1.414-17.065 1.414-15.196 0-27.753-6.406-36.195-21.602a35.135 35.135 0 0 1-1.975-4.184 52.99 52.99 0 0 0-.242-.406 35.397 35.397 0 0 1-1.293-2.355c-2.465-4.932-4.282-8.997-5.515-12.167-2.348-6.037-3.78-13.036-3.78-21.086 0-6.666 1.146-14.939 4.035-24.717 1.99-6.738 5.206-15.453 9.75-26.098 3.603-9.271 6.795-16.607 9.51-22.037 3.572-7.144 8.53-14.556 15.079-22.097 5.041-5.805 11.885-12.786 20.593-20.883 7.715-7.173 19.784-17.906 36.201-32.173 4.663-4.339 8.2-7.431 10.568-9.325a70.35 70.35 0 0 1 10.667-7.072c.305-.229.614-.452.926-.671 5.984-4.189 12.03-7.055 18.014-8.851 5.358-1.607 12.021-2.676 20.057-2.676h4.4a34.937 34.937 0 0 1 3.568.183 236.512 236.512 0 0 1 9.703-1.743c.438-.07.877-.132 1.318-.185 2.828-.343 6.187-.932 7.58-1.184 6.17-2.63 15.554-4.98 28.486-5.445 2.224-.099 4.268-.233 6.131-.42 7.457-3.314 14.122-4.406 19.614-4.406 8.906 0 18.839 2.594 28.12 10.793 9.236 5.219 15.063 11.124 18.566 16.243 5.017 7.333 8.714 17.243 8.714 30.364 0 2.098-.142 4.98-.524 8.627-.169 2.587-.276 4.511-.276 5.773 0 .777-.026 1.553-.077 2.328-.434 6.506-4.174 19.719-14.8 38.152-6.904 11.975-16.806 27.274-29.703 45.78-5.3 7.702-11.699 14.186-19.164 19.483-.658.467-1.332.933-2.021 1.396-1.939 11.605-5.476 22.819-10.604 33.644-6.499 13.721-16.191 30.724-29.19 50.944a34.406 34.406 0 0 1-10.735 16.459c-1.828 2.514-4.975 7.567-9.539 15.097-6.002 10.001-11.159 18.142-15.449 24.434-4.81 7.055-9.664 13.07-14.479 18.104a1259.187 1259.187 0 0 1-19.478 24.409c-12.019 15.461-20.109 26.299-24.176 32.584-.939 1.451-1.774 2.792-1.888 4.271-.05.649-.118 1.296-.204 1.941-1.899 14.243-5.024 23.115-7.16 27.15-4.467 8.438-11.809 16.102-23.605 21.136-.967.435-1.851.862-2.653 1.302-9.988 5.99-19.164 7.986-26.875 7.986-10.998 0-19.818-3.672-26.934-9.624-7.426-6.21-14.184-16.018-15.534-31.544a34.995 34.995 0 0 1-.127-3.635c.36-20.866 5.896-41.613 17.048-62.119 9.316-17.129 22.848-35.844 40.86-55.989 2.79-3.282 6.922-9.716 12.714-19.088 5.173-8.372 10.584-17.426 16.235-27.163Zm-63.368-26.12a35.003 35.003 0 0 1-1.494-10.118c0 2.805.229 6.27 1.494 10.118ZM227.614-52.26c-.885.715-1.615 1.428-2.247 2.06a34.72 34.72 0 0 1 2.247-2.06Zm-93.498 387.608c.533 6.134 3.067 9.2 7.6 9.2 2.667 0 5.733-1.066 9.2-3.2 1.867-1.066 4-2.133 6.4-3.2 3.2-1.333 5.4-3.133 6.6-5.4 1.2-2.266 2.333-7.4 3.4-15.4.533-6.933 3-13.8 7.4-20.6 4.4-6.8 13.133-18.6 26.2-35.4 7.2-8.8 14-17.333 20.4-25.6 4-4 8-8.933 12-14.8 4-5.866 8.8-13.466 14.4-22.8 5.333-8.8 9.067-14.666 11.2-17.6 2.933-4.533 6.133-9.466 9.6-14.8 12-18.666 21-34.333 27-47 6-12.666 9-26.066 9-40.2 5.867-2.666 10.867-5.466 15-8.4 4.133-2.933 7.667-6.533 10.6-10.8 12.267-17.6 21.667-32.066 28.2-43.4 6.533-11.333 9.933-19 10.2-23 0-1.866.133-4.8.4-8.8.267-2.4.4-4.266.4-5.6 0-4.533-.867-8.066-2.6-10.6-1.733-2.533-5.267-5-10.6-7.4-2.4-2.933-4.8-4.4-7.2-4.4-2.4 0-5.333 1.067-8.8 3.2-4.267.8-9.467 1.334-15.6 1.6-7.733.267-13.2 1.2-16.4 2.8-2.4 1.334-8 2.534-16.8 3.6-6.667 1.067-10.8 1.867-12.4 2.4-1.6 0-3.733-.133-6.4-.4h-4.4c-4 0-7.333.4-10 1.2-2.667.8-5.333 2.134-8 4-.8.8-2 1.6-3.6 2.4-2.133 1.067-4.2 2.4-6.2 4s-5 4.267-9 8c-16.267 14.134-28.2 24.734-35.8 31.8-7.6 7.067-13.6 13.134-18 18.2-4.4 5.067-7.8 10-10.2 14.8-2.4 4.8-5.2 11.334-8.4 19.6-4 9.334-6.867 16.934-8.6 22.8-1.733 5.867-2.6 10.8-2.6 14.8 0 3.2.467 6 1.4 8.4.933 2.4 2.333 5.467 4.2 9.2a54.534 54.534 0 0 1 2 3.6c.533.8.8 1.467.8 2 1.333 2.4 3.2 3.6 5.6 3.6 1.6 0 6-.4 13.2-1.2 3.2-.533 5.2-.8 6-.8 6.4-.8 12.267-2 17.6-3.6 5.333-1.6 12.133-4.133 20.4-7.6 6.667-2.666 12.4-4.8 17.2-6.4 3.733-1.066 8-2.533 12.8-4.4a473.658 473.658 0 0 0 10.8-4c-2.133 4.534-6.733 13.134-13.8 25.8a5661.106 5661.106 0 0 1-23 40.8c-8.267 14.534-16.067 27.734-23.4 39.6-7.333 11.867-12.733 19.8-16.2 23.8-16 17.867-28.133 34.4-36.4 49.6-8.267 15.2-12.533 30.534-12.8 46Zm161.2-271.6c-3.467 1.334-6.133 2.667-8 4-1.867 1.334-3.6 2.934-5.2 4.8-1.867 1.867-3.333 3.2-4.4 4-2.133 1.867-4.133 3.267-6 4.2-1.867.934-4.667 2.2-8.4 3.8a2839.76 2839.76 0 0 0-15 6.8c-4.667 2.134-11 5.334-19 9.6-10.133 5.067-18.4 7.6-24.8 7.6-5.067 0-10.667-1.466-16.8-4.4-5.067-2.4-7.6-6.266-7.6-11.6 0-5.866 3.333-14.266 10-25.2 6.667-10.933 17.467-25.333 32.4-43.2 2.4-2.933 4.667-5.266 6.8-7 2.133-1.733 5.333-3.933 9.6-6.6 4.533-2.933 8.4-5.466 11.6-7.6 2.133-1.866 4.267-2.8 6.4-2.8 4.267 0 6.4 3.334 6.4 10 0 .8.933 1.2 2.8 1.2 4 0 9.6-1.533 16.8-4.6 7.2-3.066 11.333-6.066 12.4-9l.4-1.2v-.8c0-1.6-.933-3.733-2.8-6.4-1.067-1.333-1.733-2.266-2-2.8 2.4-1.066 4.933-1.6 7.6-1.6 3.2 0 6.933.8 11.2 2.4l1.2.4c6.133 2.4 10.2 4.534 12.2 6.4 2 1.867 3 5.867 3 12 0 8-.867 14.667-2.6 20-1.733 5.334-4.6 10.934-8.6 16.8-1.067 1.6-2.4 4-4 7.2-1.867 4-3.8 6.934-5.8 8.8-2 1.867-5.267 3.467-9.8 4.8Zm-40.292-13.802.978-.472c-.292.139-.639.262-.978.472Zm-.117.055c.391-.336.789-.663 1.195-.981.129-.123.366-.346.62-.589a65.77 65.77 0 0 1 2.477-2.596 38.11 38.11 0 0 1-7.356-1.881c-.16.122-.312.241-.456.358-.586.476-1.124 1.195-1.782 2l-.234.282c-2.7 3.23-5.253 6.332-7.66 9.307 2.343-1.062 4.757-2.151 7.242-3.27.191-.086.383-.17.576-.253 2.212-.948 4.007-1.735 5.378-2.377Z" style="fill:#30466e" transform="translate(4498.28 99.652)"/><defs><linearGradient id="a" x1="0" x2="1" y1="0" y2="0" gradientTransform="matrix(0 500 -40.8258 0 2530.52 -105.852)" gradientUnits="userSpaceOnUse"><stop offset="0" style="stop-color:#b7d3f8;stop-opacity:1"/><stop offset="1" style="stop-color:#7ca6f0;stop-opacity:1"/></linearGradient><linearGradient id="b" x1="0" x2="1" y1="0" y2="0" gradientTransform="matrix(0 500 -40.8258 0 1972.52 -131.052)" gradientUnits="userSpaceOnUse"><stop offset="0" style="stop-color:#b7d3f8;stop-opacity:1"/><stop offset="1" style="stop-color:#7ca6f0;stop-opacity:1"/></linearGradient><linearGradient id="c" x1="0" x2="1" y1="0" y2="0" gradientTransform="matrix(0 500 -40.8258 0 1517.92 -118.852)" gradientUnits="userSpaceOnUse"><stop offset="0" style="stop-color:#b7d3f8;stop-opacity:1"/><stop offset="1" style="stop-color:#7ca6f0;stop-opacity:1"/></linearGradient><linearGradient id="d" x1="0" x2="1" y1="0" y2="0" gradientTransform="matrix(0 500 -40.8258 0 1002.52 -112.252)" gradientUnits="userSpaceOnUse"><stop offset="0" style="stop-color:#b7d3f8;stop-opacity:1"/><stop offset="1" style="stop-color:#7ca6f0;stop-opacity:1"/></linearGradient><linearGradient id="e" x1="0" x2="1" y1="0" y2="0" gradientTransform="matrix(0 500 -40.8258 0 519.916 -122.452)" gradientUnits="userSpaceOnUse"><stop offset="0" style="stop-color:#b7d3f8;stop-opacity:1"/><stop offset="1" style="stop-color:#7ca6f0;stop-opacity:1"/></linearGradient><linearGradient id="f" x1="0" x2="1" y1="0" y2="0" gradientTransform="matrix(0 500 -40.8258 0 42.716 -118.652)" gradientUnits="userSpaceOnUse"><stop offset="0" style="stop-color:#b7d3f8;stop-opacity:1"/><stop offset="1" style="stop-color:#7ca6f0;stop-opacity:1"/></linearGradient><linearGradient id="g" x1="0" x2="1" y1="0" y2="0" gradientTransform="matrix(0 500 -40.8258 0 -498.884 -141.852)" gradientUnits="userSpaceOnUse"><stop offset="0" style="stop-color:#b7d3f8;stop-opacity:1"/><stop offset="1" style="stop-color:#7ca6f0;stop-opacity:1"/></linearGradient><linearGradient id="h" x1="0" x2="1" y1="0" y2="0" gradientTransform="matrix(0 500 -40.8258 0 -1001.08 -121.252)" gradientUnits="userSpaceOnUse"><stop offset="0" style="stop-color:#b7d3f8;stop-opacity:1"/><stop offset="1" style="stop-color:#7ca6f0;stop-opacity:1"/></linearGradient><linearGradient id="i" x1="0" x2="1" y1="0" y2="0" gradientTransform="matrix(0 500 -40.8258 0 -1473.68 -123.852)" gradientUnits="userSpaceOnUse"><stop offset="0" style="stop-color:#b7d3f8;stop-opacity:1"/><stop offset="1" style="stop-color:#7ca6f0;stop-opacity:1"/></linearGradient><linearGradient id="j" x1="0" x2="1" y1="0" y2="0" gradientTransform="matrix(0 500 -40.8258 0 -1998.28 -99.652)" gradientUnits="userSpaceOnUse"><stop offset="0" style="stop-color:#b7d3f8;stop-opacity:1"/><stop offset="1" style="stop-color:#7ca6f0;stop-opacity:1"/></linearGradient></defs></svg>